<svg xmlns="http://www.w3.org/2000/svg" width="1440" height="1440" viewBox="0 0 1080 1080"><path fill="#8B9099" d="M500.1 286.3c2.6 2 3.1 5.1 2 13.4-.6 4.3-1.3 10-1.6 12.8-.3 2.7-1 8.6-1.6 13-.5 4.4-1.6 13.6-2.4 20.5-2.6 22.9-3.4 29-4 32.3-.3 1.7-1 7.2-1.5 12.2-.5 4.9-1.4 12.8-2 17.5s-1.3 10.3-1.5 12.5c-.3 2.2-1.2 9.4-2 16s-1.9 15.8-2.4 20.5c-.6 4.7-1.9 15.7-3 24.5-1.2 8.8-2.8 22.1-3.6 29.5-.9 7.4-2.5 20.2-3.5 28.5-1.1 8.2-2.4 19-2.9 24-.6 4.9-1.9 16-3 24.5s-2.7 21.8-3.5 29.5c-1.7 14.4-3 24.8-4.6 37-.5 3.8-1.4 11.5-2.1 17-2.3 21.2-2.7 23.6-4.3 26-1 1.4-2.8 3-4.2 3.5-1.5.6-19.6 1-42.8 1h-40.3l-2.2-2.4c-1.9-2-2.1-3.1-1.6-7.2.8-7.3 2.5-21.4 4-34.4.7-6.3 2.3-19.4 3.4-29 1.2-9.6 3.3-26.5 4.6-37.5 1.4-11 3.2-26.1 4-33.5.9-7.4 2.3-18.9 3.1-25.5s2.1-17.4 2.9-24 1.9-16.3 2.5-21.5 1.3-10.9 1.5-12.5c.2-1.7 1-8.9 1.9-16 2.7-21.4 7.5-62.1 9.1-76.5.8-7.4 2-16.7 2.5-20.5.5-3.9 1.7-13.3 2.6-21 5.5-47.3 6.2-51.9 8.5-53.8 1.9-1.6 5.6-1.7 44.3-1.7 31.6.1 42.5.4 43.7 1.3m171.2.3c22.6.6 23.8.7 24.8 2.7 1.2 2.2.8 10.8-1.1 23.7-.6 4.1-1.3 9.3-1.5 11.5s-1.3 11-2.4 19.5-2.2 17.5-2.5 20-1 8.1-1.6 12.5-1.7 13.4-2.5 20-1.9 15.6-2.5 20-1.7 13.4-2.5 20-2.6 20.8-4 31.5-3.2 24.9-4 31.5-2.6 21-4 32c-1.5 11-3.2 25.4-4 32-1.5 13.4-4.9 40.1-6.5 51.5-.6 4.1-1.5 11.5-2.1 16.5-.6 4.9-1.4 11.9-1.9 15.5s-1.6 12.3-2.4 19.5c-.9 7.1-2 16.4-2.6 20.5-.5 4.1-1.6 12.8-2.4 19.3-2.6 20-8.2 40-14.5 51.7-11.4 21.2-24.6 34-45.1 43.7-21.5 10.2-46.9 13.9-87 12.9-29.8-.8-43.2-2.3-46.1-5.2-3-3-2.8-9.7.7-34.3 2-13.9 3.2-16.7 8.1-18 2.1-.6 14.7-1.5 28-2.1 33.4-1.4 41.9-3.6 50.8-13.1 8-8.5 11.8-20.6 13.9-43.4.2-1.7.6-5.5 1-8.5s1.4-10.9 2.2-17.5c2.9-23.6 3.5-28.1 4.4-35 .6-3.9 1.9-15.1 3.1-25 1.1-9.9 2.2-19.6 2.5-21.5.2-1.9 1.3-11.2 2.4-20.5 1.1-9.4 2.7-21.7 3.5-27.5s2.2-16.6 3-24c2.5-21.7 4.4-37.9 5.5-46.5.6-4.4 1.7-13.6 2.5-20.5 1.3-12 4.3-35.7 6.5-52.5.6-4.4 1.5-12.1 2-17 .6-5 1.4-12.2 1.9-16 .9-6.3 2-15.7 5.1-41.9 4.4-36.7 3.8-33.9 7.4-36.6 3.7-2.7 5-2.9 22.6-2.4 9.6.2 28.2.7 41.3 1"/></svg>
